<svg xmlns="http://www.w3.org/2000/svg" viewBox="0 0 116.28 127.9"><defs><style>.cls-1{opacity:0.15;}.cls-2{fill:#fff;}</style></defs><g id="Capa_2" data-name="Capa 2"><g id="Layer_1" data-name="Layer 1"><g class="cls-1"><path class="cls-2" d="M113.94,23.26a20.8,20.8,0,0,1-14.79-6.13A20.84,20.84,0,0,1,93,2.33,2.32,2.32,0,0,0,90.7,0H25.58a2.32,2.32,0,0,0-2.32,2.33A21,21,0,0,1,2.33,23.26,2.32,2.32,0,0,0,0,25.58V64.93c0,32.6,25.45,60.26,58.34,63a63.56,63.56,0,0,0,57.94-63V37.47C116.27,23.26,116.27,23.26,113.94,23.26Zm-2.31,41.67c0,30.2-23.58,55.83-53.3,58.33A58.88,58.88,0,0,1,4.65,64.93V27.8A25.61,25.61,0,0,0,27.8,4.65H88.48a25.36,25.36,0,0,0,7.38,15.76,25.37,25.37,0,0,0,15.77,7.38Z"/><path class="cls-2" d="M86,11A2.33,2.33,0,0,0,83.72,9.3H32.56A2.33,2.33,0,0,0,30.32,11C27.56,20.65,20.19,28.05,11.07,30.3A2.33,2.33,0,0,0,9.3,32.56V64.89a53.85,53.85,0,0,0,49.08,53.7A53.81,53.81,0,0,0,107,64.89V32.56a2.33,2.33,0,0,0-1.69-2.24A28,28,0,0,1,86,11Zm16.37,53.9a49.14,49.14,0,0,1-44,49.07A49.17,49.17,0,0,1,14,64.89V34.32A32,32,0,0,0,34.27,14H82a32.57,32.57,0,0,0,20.32,20.31Z"/><path class="cls-2" d="M97.39,59.35l-14-25.58s-.07-.06-.1-.1a2.24,2.24,0,0,0-1.07-.94,65.5,65.5,0,0,0-17.45-4.44,6.94,6.94,0,0,0-13.34,0A65.5,65.5,0,0,0,34,32.73a2.24,2.24,0,0,0-1.07.94s-.08,0-.11.1l-14,25.58s0,.07,0,.1a2.57,2.57,0,0,0-.15.47,2,2,0,0,0-.08.43s0,.07,0,.12a16.28,16.28,0,0,0,32.56,0s0-.08,0-.12a2.05,2.05,0,0,0-.09-.43,2.54,2.54,0,0,0-.14-.47.38.38,0,0,1,0-.1L38.22,36.14A60.92,60.92,0,0,1,51.72,33a7,7,0,0,0,4.09,3.82V74.85a7,7,0,0,0-4.65,6.55v2.32h-7a7,7,0,0,0-7,7v4.65a2.32,2.32,0,0,0,2.32,2.32H76.74a2.32,2.32,0,0,0,2.33-2.32V90.7a7,7,0,0,0-7-7h-7V81.4a7,7,0,0,0-4.65-6.55V36.78A7,7,0,0,0,64.56,33a61.48,61.48,0,0,1,13.5,3.18L65.4,59.35a.53.53,0,0,0,0,.12,2,2,0,0,0-.14.43,2.34,2.34,0,0,0-.09.46s0,.07,0,.11a16.28,16.28,0,0,0,32.55,0s0-.08,0-.12a3.1,3.1,0,0,0-.08-.42,2,2,0,0,0-.15-.47A.61.61,0,0,0,97.39,59.35ZM34.88,39.74l10,18.4H24.85Zm0,32.35a11.65,11.65,0,0,1-11.39-9.3H46.28A11.65,11.65,0,0,1,34.88,72.09ZM74.42,90.7V93H41.86V90.7a2.33,2.33,0,0,1,2.33-2.33h27.9A2.33,2.33,0,0,1,74.42,90.7Zm-18.61-7V81.4a2.33,2.33,0,1,1,4.66,0v2.32Zm2.33-51a2.48,2.48,0,1,1,2.48-2.48A2.48,2.48,0,0,1,58.14,32.71ZM91.43,58.14H71.35L81.4,39.74Zm-10,14A11.61,11.61,0,0,1,70,62.79H92.79A11.66,11.66,0,0,1,81.39,72.09Z"/></g></g></g></svg>