<svg xmlns="http://www.w3.org/2000/svg" viewBox="0 0 116.28 125.58"><defs><style>.cls-1{opacity:0.15;}.cls-2{fill:#fff;}</style></defs><g id="Capa_2" data-name="Capa 2"><g id="Layer_1" data-name="Layer 1"><g class="cls-1"><path class="cls-2" d="M53.49,102.33H34.88a7,7,0,0,0-4.93,2,6.92,6.92,0,0,0-2,4.93V114a2.32,2.32,0,0,0,2.32,2.33H58.14A2.33,2.33,0,0,0,60.47,114V109.3a7,7,0,0,0-7-7Zm2.32,9.3H32.56V109.3a2.34,2.34,0,0,1,.68-1.64,2.3,2.3,0,0,1,1.64-.68H53.49a2.3,2.3,0,0,1,1.64.68,2.34,2.34,0,0,1,.68,1.64Z"/><path class="cls-2" d="M116.2,94.75a2.35,2.35,0,0,0-1.08-1.42L97.67,83.26V34.88a1.59,1.59,0,0,0-.06-.3,2.33,2.33,0,0,0,0-.28A2.24,2.24,0,0,0,97,33.24l-10.94-11v-20A2.33,2.33,0,0,0,83.72,0H2.33A2.33,2.33,0,0,0,0,2.33v109.3A2.32,2.32,0,0,0,2.33,114h9.3v9.31A2.32,2.32,0,0,0,14,125.58h81.4a2.32,2.32,0,0,0,2.32-2.32V99.38l10.47,6a2.35,2.35,0,0,0,1.16.31,2.32,2.32,0,0,0,2-1.16L116,96.51A2.35,2.35,0,0,0,116.2,94.75ZM76.74,19.57l5.33,5.33h0l7.65,7.66h-13ZM4.65,109.3V4.65H81.4v13l-5.34-5.33a2.35,2.35,0,0,0-1-.57l-.29-.05a1.59,1.59,0,0,0-.3-.06H14A2.32,2.32,0,0,0,11.63,14V109.3ZM93,120.93H16.28V16.28H72.09v18.6a2.33,2.33,0,0,0,2.33,2.33H93V80.58L70.81,67.75l1-1.68h0a2.36,2.36,0,0,0,1.17.31,2.32,2.32,0,0,0,2-1.17l2.32-4a7,7,0,0,0-2.55-9.53l-12.08-7a7,7,0,0,0-9.53,2.55l-2.33,4a2.33,2.33,0,0,0,.85,3.18l-9.3,16.11-.82-.48a2.38,2.38,0,0,0-1.77-.23,2.33,2.33,0,0,0-1.41,1.09L36,75a7,7,0,0,0,2.55,9.53l12.91,7.46a7.05,7.05,0,0,0,3.5.93,6.83,6.83,0,0,0,1.79-.24A7.06,7.06,0,0,0,61,89.38l2.32-4a2.31,2.31,0,0,0-.85-3.17l1.35-2.34L93,96.69ZM41.21,75.27l.82.47h0L58.14,85l-1.16,2a2.32,2.32,0,0,1-1.42,1.09,2.35,2.35,0,0,1-1.76-.23L40.89,80.46A2.33,2.33,0,0,1,40,77.28Zm24.41-7.83L61,75.5h0l-2.51,4.34L52.4,76.36l-6-3.49,9.3-16.11,6,3.49,6.05,3.49-2.13,3.7Zm6.48-6.57L56,51.57l1.16-2a2.34,2.34,0,0,1,1.42-1.08,2.26,2.26,0,0,1,1.76.23l12.09,7a2.35,2.35,0,0,1,1.08,1.42,2.31,2.31,0,0,1-.23,1.76Zm36.35,39.36L66.16,75.81l2.32-4,42.3,24.42Z"/><path class="cls-2" d="M32.56,48.84a2.78,2.78,0,0,0,.57-.07A14.59,14.59,0,0,0,44.19,34.6c0-9,0-9-2.33-9a2.33,2.33,0,0,1-2.33-2.32,2.32,2.32,0,0,0-2.32-2.33h-9.3a2.33,2.33,0,0,0-2.33,2.33,2.32,2.32,0,0,1-2.32,2.32,2.33,2.33,0,0,0-2.33,2.33V34.6A14.59,14.59,0,0,0,32,48.77,2.68,2.68,0,0,0,32.56,48.84Zm-7-14.24V29.83a7,7,0,0,0,4.24-4.25h5.45a7,7,0,0,0,4.25,4.25V34.6a9.94,9.94,0,0,1-7,9.5A9.94,9.94,0,0,1,25.58,34.6Z"/></g></g></g></svg>